<svg id="Layer_1" data-name="Layer 1" xmlns="http://www.w3.org/2000/svg" xmlns:xlink="http://www.w3.org/1999/xlink" viewBox="0 0 163.76 153.24"><defs><style>.cls-1{fill:url(#linear-gradient);}</style><linearGradient id="linear-gradient" y1="76.62" x2="163.76" y2="76.62" gradientUnits="userSpaceOnUse"><stop offset="0" stop-color="#00a69c"/><stop offset="0.82" stop-color="#262261"/></linearGradient></defs><title>LogosPrevios</title><path class="cls-1" d="M114.34,5.81A5.82,5.82,0,0,1,120.16,0H138a5.82,5.82,0,0,1,0,11.63H120.16A5.83,5.83,0,0,1,114.34,5.81ZM158,0H154a5.82,5.82,0,0,0,0,11.63H158A5.82,5.82,0,0,0,158,0Zm-10.4,23.25h-3.91a5.82,5.82,0,1,0,0,11.63h3.91a5.82,5.82,0,0,0,0-11.63Zm-3.91,46.51H140.7a5.82,5.82,0,0,0,0,11.63h2.94a5.82,5.82,0,0,0,0-11.63ZM122.55,46.51h-3.91a5.81,5.81,0,1,0,0,11.62h3.91a5.81,5.81,0,1,0,0-11.62Zm25,0H135.87a5.81,5.81,0,1,0,0,11.62h11.68a5.81,5.81,0,0,0,0-11.62ZM128.83,34.88H102.44a6,6,0,0,0-6,5.63,5.81,5.81,0,0,0,5.81,6h2.25a6,6,0,0,1,6.06,5.63,5.81,5.81,0,0,1-5.81,6H95.19a6,6,0,0,0-6,5.64,5.81,5.81,0,0,0,5.81,6h21.5a6,6,0,0,1,6.06,5.63,5.81,5.81,0,0,1-5.81,6H90.57a8.27,8.27,0,0,0-8.27,8.29h0a9.07,9.07,0,0,1-3.39,7.13c-6.94,5.53-21.55,13.87-21.55,41,0,1.67,0,3.32.15,5a6,6,0,0,1-1.75,4.61l-4,4a6,6,0,0,1-6.9,1.18,80.54,80.54,0,0,1-37-106.82,2.28,2.28,0,0,1-.3-.17A12.24,12.24,0,0,1,14.4,23.28h.29a12.26,12.26,0,0,1,6.63,2.14,3,3,0,0,1,.27.23A80.22,80.22,0,0,1,80.47,0h23.36a6,6,0,0,1,6,5.63,5.81,5.81,0,0,1-5.81,6H92.44a6,6,0,0,0-6,5.63,5.81,5.81,0,0,0,5.81,6h36.87a5.81,5.81,0,0,1,5.81,6A6,6,0,0,1,128.83,34.88ZM18.27,29.42a7.15,7.15,0,0,0-3.7-1.14,7.23,7.23,0,0,0-4.42,13.08A79.93,79.93,0,0,1,18.27,29.42ZM50.89,87.2a5.81,5.81,0,0,0-5.81-5.81H42.14a5.81,5.81,0,0,0-5.81,5.81h0A5.81,5.81,0,0,0,42.14,93h2.94a5.81,5.81,0,0,0,5.81-5.81ZM70.5,28.28a7.33,7.33,0,0,1,5.17,2,7.24,7.24,0,0,1-4.83,12.47,2.5,2.5,0,0,0,.06,5H71a12.22,12.22,0,0,0,9.51-4.93,12.45,12.45,0,0,0,.92-1.43,12.19,12.19,0,0,0-.27-12.23c-.21-.33-.42-.65-.65-1a12.23,12.23,0,0,0-22,7.6,2.5,2.5,0,0,0,2.5,2.44H61a2.49,2.49,0,0,0,2.44-2.55A7.24,7.24,0,0,1,70.5,28.28Zm10,40.89A6,6,0,0,0,82,68.1a5.8,5.8,0,0,0-.19-8.48,5.37,5.37,0,0,0-1.32-.89,5.73,5.73,0,0,0-2.55-.6h-4.6a5.82,5.82,0,0,0,0,11.63h4.6A5.86,5.86,0,0,0,80.47,69.17Z"/></svg>