<svg id="Layer_1" data-name="Layer 1" xmlns="http://www.w3.org/2000/svg" xmlns:xlink="http://www.w3.org/1999/xlink" viewBox="0 0 693.62 153.24"><defs><style>.cls-1{fill:#231f20;}.cls-2{fill:url(#linear-gradient);}</style><linearGradient id="linear-gradient" y1="76.62" x2="163.76" y2="76.62" gradientUnits="userSpaceOnUse"><stop offset="0" stop-color="#00a69c"/><stop offset="0.82" stop-color="#262261"/></linearGradient></defs><title>LogosPrevios</title><path class="cls-1" d="M268.11,42.67A49.12,49.12,0,0,1,266.47,56a34,34,0,0,1-4.62,10.12,30.11,30.11,0,0,1-7.14,7.32,36.7,36.7,0,0,1-9.27,4.81,55.84,55.84,0,0,1-11,2.64,88.73,88.73,0,0,1-12.3.82H172.71V3.78H222a90.45,90.45,0,0,1,12.31.82,56.39,56.39,0,0,1,11,2.64A38,38,0,0,1,254.68,12a29.15,29.15,0,0,1,7.17,7.31,34.59,34.59,0,0,1,4.62,10.12A48.66,48.66,0,0,1,268.11,42.67Zm-21.2,0a29.72,29.72,0,0,0-1.44-9.75,15.4,15.4,0,0,0-4.65-6.83,21,21,0,0,0-8.36-4,51.52,51.52,0,0,0-12.59-1.33H193.74v44h26.13a51,51,0,0,0,12.59-1.33,20.64,20.64,0,0,0,8.36-4.08,15.82,15.82,0,0,0,4.65-6.89A29.72,29.72,0,0,0,246.91,42.67Z"/><path class="cls-1" d="M349.86,66.93H306.43l-7.31,14.74H275.65L316.41,3.78h23.47l40.76,77.89H357.17ZM314,51.74h28.46L328.26,23.06Z"/><path class="cls-1" d="M467,81.67,414.43,28.16V81.67h-21V3.78h22.84l52.61,53.74V3.78h20.92V81.67Z"/><path class="cls-1" d="M557.79,20.73V81.67h-21V20.73H503.71V3.78H590.9v17Z"/><path class="cls-1" d="M662.84,66.93H619.41L612.1,81.67H588.63L629.39,3.78h23.47l40.76,77.89H670.15ZM627,51.74h28.46L641.24,23.06Z"/><path class="cls-1" d="M213.67,141.66v-4.49a34.6,34.6,0,0,1-4.82,2.13,51.38,51.38,0,0,1-5.7,1.68,55.59,55.59,0,0,1-6.15,1.09,50.72,50.72,0,0,1-6.2.39,32.5,32.5,0,0,1-7.1-.71,16.5,16.5,0,0,1-5.33-2.11,10.08,10.08,0,0,1-3.37-3.48,9.71,9.71,0,0,1-1.18-4.83,8.57,8.57,0,0,1,1.37-4.8,12.11,12.11,0,0,1,3.92-3.63,26.37,26.37,0,0,1,6.12-2.63,70,70,0,0,1,8-1.83q4.42-.75,9.58-1.24c3.43-.32,7-.59,10.84-.81v-3.1A7.48,7.48,0,0,0,213,110a7.94,7.94,0,0,0-2-2.53,11.43,11.43,0,0,0-3-1.8,22.37,22.37,0,0,0-3.71-1.17,33.44,33.44,0,0,0-4.19-.63c-1.47-.13-2.94-.19-4.41-.19a47.41,47.41,0,0,0-5.44.29,38.9,38.9,0,0,0-4.57.82c-1.42.34-2.78.74-4.08,1.19s-2.6.94-3.92,1.45v-4.31q4.09-1.1,8.75-1.91a57.53,57.53,0,0,1,9.88-.81,43.06,43.06,0,0,1,8.26.75,21.53,21.53,0,0,1,6.67,2.41,12.62,12.62,0,0,1,4.46,4.27,11.83,11.83,0,0,1,1.62,6.36v27.51Zm0-22q-9.66.52-16.5,1.5a67.33,67.33,0,0,0-11.18,2.4,17.2,17.2,0,0,0-6.37,3.3,5.76,5.76,0,0,0-2,4.28,6.18,6.18,0,0,0,1,3.46,7.83,7.83,0,0,0,2.85,2.52,15.76,15.76,0,0,0,4.52,1.54,31.8,31.8,0,0,0,6,.51,37.49,37.49,0,0,0,4-.22c1.39-.15,2.77-.35,4.15-.62s2.74-.58,4.08-.94,2.6-.77,3.78-1.2a30.91,30.91,0,0,0,3.24-1.39,15.94,15.94,0,0,0,2.46-1.5Z"/><path class="cls-1" d="M269.91,141.66V114.89a14.59,14.59,0,0,0-.9-5.54,8.14,8.14,0,0,0-2.57-3.44,10.1,10.1,0,0,0-4.06-1.77,26.51,26.51,0,0,0-5.37-.5,27.47,27.47,0,0,0-6.77.84,40.28,40.28,0,0,0-6.28,2.13,40,40,0,0,0-9.62,5.85v29.2h-3.69V101.1h3.69v7.11q2.07-1.29,4.56-2.73a46.19,46.19,0,0,1,5.37-2.62,40,40,0,0,1,6.16-2,30.24,30.24,0,0,1,6.91-.76,23.54,23.54,0,0,1,7.15,1,13.91,13.91,0,0,1,5.08,2.81,11.36,11.36,0,0,1,3,4.4,15.77,15.77,0,0,1,1,5.77v27.57Z"/><path class="cls-1" d="M323.79,141.66v-4.49A35.29,35.29,0,0,1,319,139.3a51.38,51.38,0,0,1-5.7,1.68,55.18,55.18,0,0,1-6.15,1.09,50.59,50.59,0,0,1-6.2.39,32.56,32.56,0,0,1-7.1-.71,16.59,16.59,0,0,1-5.33-2.11,10.08,10.08,0,0,1-3.37-3.48,9.71,9.71,0,0,1-1.18-4.83,8.5,8.5,0,0,1,1.38-4.8,12.07,12.07,0,0,1,3.91-3.63,26.37,26.37,0,0,1,6.12-2.63,71,71,0,0,1,8-1.83q4.42-.75,9.58-1.24t10.85-.81v-3.1a7.48,7.48,0,0,0-.71-3.33,7.67,7.67,0,0,0-2-2.53,11.43,11.43,0,0,0-3-1.8,22.08,22.08,0,0,0-3.71-1.17,33.17,33.17,0,0,0-4.19-.63c-1.46-.13-2.94-.19-4.41-.19a47.11,47.11,0,0,0-5.43.29,38.71,38.71,0,0,0-4.58.82c-1.42.34-2.77.74-4.07,1.19s-2.61.94-3.93,1.45v-4.31c2.74-.73,5.65-1.37,8.75-1.91a57.61,57.61,0,0,1,9.88-.81,43,43,0,0,1,8.26.75,21.59,21.59,0,0,1,6.68,2.41,12.59,12.59,0,0,1,4.45,4.27,11.75,11.75,0,0,1,1.63,6.36v27.51Zm0-22q-9.66.52-16.5,1.5a67.47,67.47,0,0,0-11.19,2.4,17.14,17.14,0,0,0-6.36,3.3,5.74,5.74,0,0,0-2,4.28,6.18,6.18,0,0,0,1,3.46,7.83,7.83,0,0,0,2.85,2.52,15.76,15.76,0,0,0,4.52,1.54,32,32,0,0,0,6,.51,37.36,37.36,0,0,0,4-.22c1.39-.15,2.78-.35,4.16-.62s2.73-.58,4.07-.94,2.6-.77,3.78-1.2a30,30,0,0,0,3.24-1.39,16.07,16.07,0,0,0,2.47-1.5Z"/><path class="cls-1" d="M344.45,127.64a22.22,22.22,0,0,0,.44,4.72,6.07,6.07,0,0,0,1.86,3.25,9,9,0,0,0,4.09,1.87,32.91,32.91,0,0,0,7.1.61h18.34v3.57H357.2a34.54,34.54,0,0,1-8-.78,11.85,11.85,0,0,1-5.05-2.42,8.59,8.59,0,0,1-2.61-4.15,21.32,21.32,0,0,1-.74-6V101.1h3.69Z"/><path class="cls-1" d="M425.1,126.84a12.48,12.48,0,0,1-1.86,6.89,15,15,0,0,1-5.12,4.83,25.24,25.24,0,0,1-7.71,2.85,46.82,46.82,0,0,1-9.6.93,68.28,68.28,0,0,1-10.31-.72,42.53,42.53,0,0,1-8.2-2v-4.28c1.26.54,2.55,1,3.89,1.48s2.76.85,4.28,1.2a42,42,0,0,0,4.85.79,51.09,51.09,0,0,0,5.59.28,37.28,37.28,0,0,0,8-.81,23.41,23.41,0,0,0,6.48-2.36,13.18,13.18,0,0,0,4.37-3.82,8.85,8.85,0,0,0,1.6-5.23v-7.67a22.3,22.3,0,0,1-3.46,3.67,24.86,24.86,0,0,1-4.58,3.1,26.2,26.2,0,0,1-5.47,2.16,23.36,23.36,0,0,1-6.22.81,27.75,27.75,0,0,1-6.59-.7,19.23,19.23,0,0,1-5-1.9,14.06,14.06,0,0,1-3.61-2.88A14.49,14.49,0,0,1,384,119.8a17.17,17.17,0,0,1-1.29-4.12,23.53,23.53,0,0,1-.4-4.37V101.1h3.77v9.4a21.94,21.94,0,0,0,.82,6.17,11.63,11.63,0,0,0,2.66,4.75,12.3,12.3,0,0,0,4.88,3,22.67,22.67,0,0,0,7.47,1.07,20.62,20.62,0,0,0,6.34-.93,21.14,21.14,0,0,0,5.27-2.5,24.86,24.86,0,0,0,4.34-3.64,34.56,34.56,0,0,0,3.47-4.34v-13h3.78Z"/><path class="cls-1" d="M455.21,104.46v37.2h-3.66v-37.2H433.1V101.1h40.56v3.36Z"/><path class="cls-1" d="M481.63,141.66V101.1h3.69v40.56Z"/><path class="cls-1" d="M536.38,140.07a44.22,44.22,0,0,1-4.32,1.27,41.55,41.55,0,0,1-4.73.82,45,45,0,0,1-5.4.3,39.79,39.79,0,0,1-6.92-.59,30.73,30.73,0,0,1-6.19-1.77,23.43,23.43,0,0,1-5.19-2.94,18.46,18.46,0,0,1-4-4.09,18,18,0,0,1-2.57-5.25,23.28,23.28,0,0,1,0-12.82,18,18,0,0,1,2.57-5.25,18.68,18.68,0,0,1,4-4.09,23.43,23.43,0,0,1,5.19-2.94A30.92,30.92,0,0,1,515,101a39.85,39.85,0,0,1,6.94-.59,45,45,0,0,1,5.4.3,41.55,41.55,0,0,1,4.73.82q2.24.54,4.32,1.26c1.39.48,2.79,1,4.21,1.61v4.43a39.85,39.85,0,0,0-3.61-2,30.68,30.68,0,0,0-4.15-1.66,33.35,33.35,0,0,0-10.21-1.53,35.78,35.78,0,0,0-10.13,1.27,19.69,19.69,0,0,0-7.07,3.59,14.13,14.13,0,0,0-4.14,5.61,20.86,20.86,0,0,0,0,14.71,14.14,14.14,0,0,0,4.14,5.59,19.52,19.52,0,0,0,7.07,3.58,36.57,36.57,0,0,0,10.13,1.25A34.29,34.29,0,0,0,533,137.65a30.7,30.7,0,0,0,4.17-1.64,33,33,0,0,0,3.47-2v4.39C539.17,139,537.77,139.58,536.38,140.07Z"/><path class="cls-1" d="M584.31,107.09c-.77-.37-1.66-.77-2.66-1.19a24.05,24.05,0,0,0-3.45-1.14,41.11,41.11,0,0,0-4.35-.84,38.46,38.46,0,0,0-5.38-.34,44.65,44.65,0,0,0-6.37.41,18.22,18.22,0,0,0-4.73,1.29,7.45,7.45,0,0,0-3,2.2,5,5,0,0,0-1,3.15,4.07,4.07,0,0,0,1,2.69,8.73,8.73,0,0,0,2.6,2A23.24,23.24,0,0,0,560.8,117c1.47.48,3,.93,4.67,1.36l5.08,1.28c1.74.43,3.44.9,5.08,1.4a47.24,47.24,0,0,1,4.67,1.68,18,18,0,0,1,3.84,2.17,10.09,10.09,0,0,1,2.6,2.84,7,7,0,0,1,1,3.69,8.73,8.73,0,0,1-.85,4,9.4,9.4,0,0,1-2.32,2.92,13,13,0,0,1-3.43,2,23.52,23.52,0,0,1-4.19,1.28,35.62,35.62,0,0,1-4.6.67c-1.59.12-3.15.19-4.68.19a53,53,0,0,1-17.77-2.87v-4.51a26.55,26.55,0,0,0,8.48,3.27,50.37,50.37,0,0,0,15.84.48,21,21,0,0,0,5.11-1.32,8.58,8.58,0,0,0,3.35-2.34,5.38,5.38,0,0,0,1.19-3.55,4.76,4.76,0,0,0-1-3,8.69,8.69,0,0,0-2.59-2.23,20.21,20.21,0,0,0-3.84-1.69c-1.47-.5-3-1-4.65-1.38s-3.32-.83-5.06-1.24-3.43-.84-5.07-1.31a48.71,48.71,0,0,1-4.65-1.59,18,18,0,0,1-3.83-2.09,9.43,9.43,0,0,1-2.6-2.76,6.79,6.79,0,0,1-1-3.63,8,8,0,0,1,2.88-6.34,12.15,12.15,0,0,1,3.14-1.94,22,22,0,0,1,3.85-1.24,35.6,35.6,0,0,1,4.27-.66c1.48-.14,2.93-.21,4.37-.21s3.06.07,4.47.21,2.77.32,4.08.54,2.58.49,3.83.79,2.52.61,3.8.94Z"/><path class="cls-2" d="M114.34,5.81A5.82,5.82,0,0,1,120.16,0H138a5.82,5.82,0,0,1,0,11.63H120.16A5.83,5.83,0,0,1,114.34,5.81ZM158,0H154a5.82,5.82,0,0,0,0,11.63H158A5.82,5.82,0,0,0,158,0Zm-10.4,23.25h-3.91a5.82,5.82,0,1,0,0,11.63h3.91a5.82,5.82,0,0,0,0-11.63Zm-3.91,46.51H140.7a5.82,5.82,0,0,0,0,11.63h2.94a5.82,5.82,0,0,0,0-11.63ZM122.55,46.51h-3.91a5.81,5.81,0,1,0,0,11.62h3.91a5.81,5.81,0,1,0,0-11.62Zm25,0H135.87a5.81,5.81,0,1,0,0,11.62h11.68a5.81,5.81,0,0,0,0-11.62ZM128.83,34.88H102.44a6,6,0,0,0-6,5.63,5.81,5.81,0,0,0,5.81,6h2.25a6,6,0,0,1,6.06,5.63,5.81,5.81,0,0,1-5.81,6H95.19a6,6,0,0,0-6,5.64,5.81,5.81,0,0,0,5.81,6h21.5a6,6,0,0,1,6.06,5.63,5.81,5.81,0,0,1-5.81,6H90.57a8.27,8.27,0,0,0-8.27,8.29h0a9.07,9.07,0,0,1-3.39,7.13c-6.94,5.53-21.55,13.87-21.55,41,0,1.67,0,3.32.15,5a6,6,0,0,1-1.75,4.61l-4,4a6,6,0,0,1-6.9,1.18,80.54,80.54,0,0,1-37-106.82,2.28,2.28,0,0,1-.3-.17A12.24,12.24,0,0,1,14.4,23.28h.29a12.26,12.26,0,0,1,6.63,2.14,3,3,0,0,1,.27.23A80.22,80.22,0,0,1,80.47,0h23.36a6,6,0,0,1,6,5.63,5.81,5.81,0,0,1-5.81,6H92.44a6,6,0,0,0-6,5.63,5.81,5.81,0,0,0,5.81,6h36.87a5.81,5.81,0,0,1,5.81,6A6,6,0,0,1,128.83,34.88ZM18.27,29.42a7.15,7.15,0,0,0-3.7-1.14,7.23,7.23,0,0,0-4.42,13.08A79.93,79.93,0,0,1,18.27,29.42ZM50.89,87.2a5.81,5.81,0,0,0-5.81-5.81H42.14a5.81,5.81,0,0,0-5.81,5.81h0A5.81,5.81,0,0,0,42.14,93h2.94a5.81,5.81,0,0,0,5.81-5.81ZM70.5,28.28a7.33,7.33,0,0,1,5.17,2,7.24,7.24,0,0,1-4.83,12.47,2.5,2.5,0,0,0,.06,5H71a12.22,12.22,0,0,0,9.51-4.93,12.45,12.45,0,0,0,.92-1.43,12.19,12.19,0,0,0-.27-12.23c-.21-.33-.42-.65-.65-1a12.23,12.23,0,0,0-22,7.6,2.5,2.5,0,0,0,2.5,2.44H61a2.49,2.49,0,0,0,2.44-2.55A7.24,7.24,0,0,1,70.5,28.28Zm10,40.89A6,6,0,0,0,82,68.1a5.8,5.8,0,0,0-.19-8.48,5.37,5.37,0,0,0-1.32-.89,5.73,5.73,0,0,0-2.55-.6h-4.6a5.82,5.82,0,0,0,0,11.63h4.6A5.86,5.86,0,0,0,80.47,69.17Z"/></svg>